<svg width="32" height="28" viewBox="0 0 32 28" fill="none" xmlns="http://www.w3.org/2000/svg">
<path d="M11.1436 22.6188H22.4816C22.8866 22.6188 23.2785 22.4755 23.5878 22.2142C23.8972 21.9529 24.1041 21.5904 24.1719 21.1911L27.1855 3.47434C27.2535 3.07525 27.4605 2.7131 27.7699 2.45202C28.0793 2.19094 28.471 2.04777 28.8758 2.04785H30.0003" stroke="#26395C" stroke-width="2.41424" stroke-linecap="round" stroke-linejoin="round"/>
<path d="M13.286 25.1904C13.3707 25.1904 13.4536 25.2156 13.5241 25.2627C13.5946 25.3098 13.6495 25.3767 13.6819 25.455C13.7144 25.5334 13.7228 25.6195 13.7063 25.7027C13.6898 25.7858 13.649 25.8622 13.589 25.9222C13.5291 25.9821 13.4527 26.0229 13.3696 26.0395C13.2865 26.056 13.2003 26.0475 13.122 26.0151C13.0437 25.9826 12.9767 25.9277 12.9296 25.8572C12.8826 25.7867 12.8574 25.7038 12.8574 25.6191C12.8574 25.5054 12.9026 25.3964 12.9829 25.316C13.0633 25.2356 13.1723 25.1904 13.286 25.1904Z" stroke="#26395C" stroke-width="2.41424" stroke-linecap="round" stroke-linejoin="round"/>
<path d="M21.8573 25.1904C21.942 25.1904 22.0249 25.2156 22.0954 25.2627C22.1658 25.3098 22.2208 25.3767 22.2532 25.455C22.2856 25.5334 22.2941 25.6195 22.2776 25.7027C22.2611 25.7858 22.2202 25.8622 22.1603 25.9222C22.1004 25.9821 22.024 26.0229 21.9409 26.0395C21.8577 26.056 21.7716 26.0475 21.6933 26.0151C21.615 25.9826 21.548 25.9277 21.5009 25.8572C21.4538 25.7867 21.4287 25.7038 21.4287 25.6191C21.4287 25.5054 21.4739 25.3964 21.5542 25.316C21.6346 25.2356 21.7436 25.1904 21.8573 25.1904" stroke="#26395C" stroke-width="2.41424" stroke-linecap="round" stroke-linejoin="round"/>
<path d="M24.8034 17.4753H11.0084C10.2439 17.4753 9.50139 17.2196 8.89883 16.7491C8.29627 16.2786 7.86823 15.6201 7.68272 14.8784L6.02562 8.24889C5.994 8.12246 5.99162 7.99048 6.01865 7.86299C6.04569 7.7355 6.10143 7.61585 6.18165 7.51315C6.26186 7.41044 6.36443 7.32737 6.48156 7.27027C6.59869 7.21316 6.72729 7.18352 6.8576 7.18359H26.5531" stroke="#26395C" stroke-width="2.41424" stroke-linecap="round" stroke-linejoin="round"/>
<circle cx="7" cy="7.04785" r="7" fill="#0E8BFF"/>
<path d="M9.1775 8.09831C9.1775 8.30015 9.125 8.48822 9.02 8.66253C8.915 8.83684 8.7675 8.98593 8.5775 9.10978C8.3925 9.23363 8.17 9.33226 7.91 9.40565C7.655 9.47446 7.375 9.50886 7.07 9.50886C6.665 9.50886 6.28 9.44235 5.915 9.30932C5.55 9.17629 5.245 8.99281 5 8.75886L5.69 8.174C5.9 8.36666 6.1075 8.50198 6.3125 8.57996C6.5175 8.65794 6.7675 8.69693 7.0625 8.69693C7.3825 8.69693 7.6425 8.63501 7.8425 8.51116C8.0425 8.3873 8.1425 8.22675 8.1425 8.0295C8.1425 7.8506 8.05 7.7084 7.865 7.6029C7.685 7.49739 7.445 7.44464 7.145 7.44464H6.665V6.69464H7.04C7.31 6.69464 7.535 6.62813 7.715 6.4951C7.895 6.36207 7.985 6.19464 7.985 5.99281C7.985 5.81391 7.895 5.66482 7.715 5.54556C7.54 5.42629 7.3175 5.36666 7.0475 5.36666C6.7925 5.36666 6.5675 5.41024 6.3725 5.49739C6.1775 5.57996 5.9675 5.72446 5.7425 5.93088L5.045 5.34602C5.3 5.09831 5.6075 4.90336 5.9675 4.76115C6.3275 4.61895 6.7 4.54785 7.085 4.54785C7.365 4.54785 7.6225 4.58226 7.8575 4.65106C8.0975 4.71528 8.3025 4.80703 8.4725 4.92629C8.6425 5.04556 8.775 5.18776 8.87 5.3529C8.965 5.51803 9.0125 5.69923 9.0125 5.89648C9.0125 6.13501 8.9425 6.3529 8.8025 6.55015C8.6625 6.74281 8.4725 6.89648 8.2325 7.01115C8.5175 7.1029 8.745 7.2451 8.915 7.43776C9.09 7.63042 9.1775 7.8506 9.1775 8.09831Z" fill="white"/>
</svg>
